<svg xmlns="http://www.w3.org/2000/svg" viewBox="0 0 100 100" fill="none" shape-rendering="auto" aria-hidden="true"><!-- Generated by DiceBear (https://www.dicebear.com) --><metadata xmlns:rdf="http://www.w3.org/1999/02/22-rdf-syntax-ns#" xmlns:xsi="http://www.w3.org/2001/XMLSchema-instance" xmlns:dc="http://purl.org/dc/elements/1.1/" xmlns:dcterms="http://purl.org/dc/terms/"><rdf:RDF><rdf:Description><dc:title>Shapes</dc:title><dc:creator>DiceBear</dc:creator><dc:source xsi:type="dcterms:URI">https://www.dicebear.com</dc:source><dcterms:license xsi:type="dcterms:URI">https://creativecommons.org/publicdomain/zero/1.0/</dcterms:license><dc:rights>“Shapes” (https://www.dicebear.com) by “DiceBear”, licensed under “CC0 1.0” (https://creativecommons.org/publicdomain/zero/1.0/)</dc:rights></rdf:Description></rdf:RDF></metadata><defs><g id="shape01-line-1337b8f9"><path fill="#b6b6b9" d="M45 0h10v400H45z"/></g><g id="shape02-ellipseFilled-1337b8f9"><path d="M100 200a50 50 0 1 1-100 0 50 50 0 0 1 100 0" fill="#7c7c80"/></g><g id="shape03-rectangleFilled-1337b8f9"><path d="M0 150h100v100H0z" fill="#343437"/></g><g id="animation-none-1337b8f9"></g><clipPath id="clip-1337b8f9"><rect width="100" height="100" rx="0" ry="0"/></clipPath></defs><g clip-path="url(#clip-1337b8f9)"><rect width="100" height="100" fill="#ececee"/><g class="dbsh-s1"><use transform="matrix(1.2 0 0 1.2 -10 -190) translate(-53.4393, -75.2068) rotate(77.5254, 50, 200) translate(50, 200) scale(1.066) translate(-50, -200)" href="#shape01-line-1337b8f9"/></g><g class="dbsh-s2"><use transform="matrix(.8 0 0 .8 10 -110) translate(-52.3397, 17.6624) rotate(-81.836, 50, 200) translate(50, 200) scale(0.965) translate(-50, -200)" href="#shape02-ellipseFilled-1337b8f9"/></g><g class="dbsh-s3"><use transform="matrix(.4 0 0 .4 30 -30) translate(-32.5577, 5.8516) rotate(3.0086, 50, 200) translate(50, 200) scale(1.0186) translate(-50, -200)" href="#shape03-rectangleFilled-1337b8f9"/></g><use href="#animation-none-1337b8f9"/></g></svg>