<svg xmlns="http://www.w3.org/2000/svg" viewBox="0 0 100 100" fill="none" shape-rendering="auto" aria-hidden="true"><!-- Generated by DiceBear (https://www.dicebear.com) --><metadata xmlns:rdf="http://www.w3.org/1999/02/22-rdf-syntax-ns#" xmlns:xsi="http://www.w3.org/2001/XMLSchema-instance" xmlns:dc="http://purl.org/dc/elements/1.1/" xmlns:dcterms="http://purl.org/dc/terms/"><rdf:RDF><rdf:Description><dc:title>Shapes</dc:title><dc:creator>DiceBear</dc:creator><dc:source xsi:type="dcterms:URI">https://www.dicebear.com</dc:source><dcterms:license xsi:type="dcterms:URI">https://creativecommons.org/publicdomain/zero/1.0/</dcterms:license><dc:rights>“Shapes” (https://www.dicebear.com) by “DiceBear”, licensed under “CC0 1.0” (https://creativecommons.org/publicdomain/zero/1.0/)</dc:rights></rdf:Description></rdf:RDF></metadata><defs><g id="shape01-ellipseFilled-63840622"><path d="M100 200a50 50 0 1 1-100 0 50 50 0 0 1 100 0" fill="#b6b6b9"/></g><g id="shape02-polygonFilled-63840622"><path d="m50 157 50 86.6H0z" fill="#7c7c80"/></g><g id="shape03-rectangle-63840622"><path fill-rule="evenodd" clip-rule="evenodd" d="M90 160H10v80h80zM0 150v100h100V150z" fill="#343437"/></g><g id="animation-none-63840622"></g><clipPath id="clip-63840622"><rect width="100" height="100" rx="0" ry="0"/></clipPath></defs><g clip-path="url(#clip-63840622)"><rect width="100" height="100" fill="#ececee"/><g class="dbsh-s1"><use transform="matrix(1.2 0 0 1.2 -10 -190) translate(-52.8657, -69.91) rotate(63.2092, 50, 200) translate(50, 200) scale(0.9013) translate(-50, -200)" href="#shape01-ellipseFilled-63840622"/></g><g class="dbsh-s2"><use transform="matrix(.8 0 0 .8 10 -110) translate(-41.2222, 46.8032) rotate(20.5251, 50, 200) translate(50, 200) scale(0.9696) translate(-50, -200)" href="#shape02-polygonFilled-63840622"/></g><g class="dbsh-s3"><use transform="matrix(.4 0 0 .4 30 -30) translate(-0.6985, 16.45) rotate(71.6505, 50, 200) translate(50, 200) scale(0.9248) translate(-50, -200)" href="#shape03-rectangle-63840622"/></g><use href="#animation-none-63840622"/></g></svg>