<svg xmlns="http://www.w3.org/2000/svg" viewBox="0 0 100 100" fill="none" shape-rendering="auto" aria-hidden="true"><!-- Generated by DiceBear (https://www.dicebear.com) --><metadata xmlns:rdf="http://www.w3.org/1999/02/22-rdf-syntax-ns#" xmlns:xsi="http://www.w3.org/2001/XMLSchema-instance" xmlns:dc="http://purl.org/dc/elements/1.1/" xmlns:dcterms="http://purl.org/dc/terms/"><rdf:RDF><rdf:Description><dc:title>Shapes</dc:title><dc:creator>DiceBear</dc:creator><dc:source xsi:type="dcterms:URI">https://www.dicebear.com</dc:source><dcterms:license xsi:type="dcterms:URI">https://creativecommons.org/publicdomain/zero/1.0/</dcterms:license><dc:rights>“Shapes” (https://www.dicebear.com) by “DiceBear”, licensed under “CC0 1.0” (https://creativecommons.org/publicdomain/zero/1.0/)</dc:rights></rdf:Description></rdf:RDF></metadata><defs><g id="shape01-line-68a3131a"><path fill="#b6b6b9" d="M45 0h10v400H45z"/></g><g id="shape02-line-68a3131a"><path fill="#7c7c80" d="M45 0h10v400H45z"/></g><g id="shape03-line-68a3131a"><path fill="#343437" d="M45 0h10v400H45z"/></g><g id="animation-none-68a3131a"></g><clipPath id="clip-68a3131a"><rect width="100" height="100" rx="0" ry="0"/></clipPath></defs><g clip-path="url(#clip-68a3131a)"><rect width="100" height="100" fill="#ececee"/><g class="dbsh-s1"><use transform="matrix(1.2 0 0 1.2 -10 -190) translate(-50.6564, -14.6168) rotate(32.7969, 50, 200) translate(50, 200) scale(1.0985) translate(-50, -200)" href="#shape01-line-68a3131a"/></g><g class="dbsh-s2"><use transform="matrix(.8 0 0 .8 10 -110) translate(-17.9669, 13.9028) rotate(136.7185, 50, 200) translate(50, 200) scale(1.0997) translate(-50, -200)" href="#shape02-line-68a3131a"/></g><g class="dbsh-s3"><use transform="matrix(.4 0 0 .4 30 -30) translate(-39.9023, 30.588) rotate(106.0336, 50, 200) translate(50, 200) scale(1.089) translate(-50, -200)" href="#shape03-line-68a3131a"/></g><use href="#animation-none-68a3131a"/></g></svg>