<?xml version="1.0" standalone="no"?>
<!DOCTYPE svg PUBLIC "-//W3C//DTD SVG 20010904//EN"
 "http://www.w3.org/TR/2001/REC-SVG-20010904/DTD/svg10.dtd">
<svg version="1.0" xmlns="http://www.w3.org/2000/svg"
 width="282.000000pt" height="282.000000pt" viewBox="0 0 282.000000 282.000000"
 preserveAspectRatio="xMidYMid meet">
<metadata>
Created by potrace 1.14, written by Peter Selinger 2001-2017
</metadata>
<g transform="translate(0.000000,282.000000) scale(0.100000,-0.100000)"
fill="#000000" stroke="none">
<path d="M1265 2534 c-92 -16 -193 -45 -256 -73 -36 -16 -46 -18 -59 -7 -43
36 -100 19 -100 -31 0 -15 -11 -36 -25 -49 -20 -19 -24 -29 -19 -51 4 -16 11
-33 15 -39 5 -6 -7 -42 -30 -88 -35 -68 -59 -147 -76 -241 -6 -34 -7 -180 -1
-210 16 -89 17 -95 3 -95 -20 0 -49 -36 -45 -56 5 -28 27 -28 34 0 7 28 34 36
34 11 0 -8 -4 -15 -9 -15 -5 0 -17 -20 -27 -45 -31 -83 -7 -211 54 -277 24
-26 24 -28 10 -65 -22 -54 -9 -88 32 -80 22 5 33 2 43 -13 18 -26 56 -39 89
-29 22 6 30 4 38 -10 8 -17 2 -19 -78 -24 -94 -6 -172 -28 -212 -59 -30 -24
-80 -97 -80 -119 0 -32 -43 -57 -110 -63 -110 -12 -181 -57 -229 -146 -48 -91
-53 -257 -8 -296 l24 -21 -48 -54 c-57 -63 -159 -193 -159 -203 0 -3 556 -6
1236 -6 l1235 0 -6 23 c-14 46 -76 169 -121 239 -57 89 -172 204 -242 244 -37
21 -52 35 -52 50 0 59 -59 159 -116 198 l-35 23 25 17 c42 27 103 117 125 183
23 68 26 136 10 198 -24 91 -24 93 16 133 60 60 97 150 97 238 0 39 2 43 21
40 25 -4 67 13 67 26 0 4 -7 9 -15 9 -8 1 -21 2 -27 3 -7 1 -23 -1 -35 -6 -17
-6 -23 -4 -23 8 0 25 -49 62 -91 69 -22 4 -42 12 -43 18 -41 166 -46 198 -38
213 5 9 6 32 2 50 -6 26 -4 37 11 50 11 9 19 27 19 40 0 12 14 45 31 73 38 60
34 105 -10 124 -17 8 -25 18 -23 30 6 31 -25 67 -58 67 -20 0 -28 4 -24 13 3
8 -2 20 -11 27 -15 12 -33 15 -150 21 -27 1 -55 6 -62 11 -6 5 -29 11 -50 14
-21 3 -49 7 -63 10 -57 13 -327 11 -405 -2z m909 -816 c33 -30 39 -86 19 -166
-15 -61 -47 -122 -68 -129 -6 -2 -11 45 -12 126 -1 70 -4 142 -6 160 -5 27 -2
31 18 31 13 0 35 -10 49 -22z"/>
</g>
</svg>
